User Type,Username,Date,Text
,ramalan,2011-07-05T05:47Z,"Awesome quality rip. Thanks a lot.

Duration                         : 2h 8mn 21s
Overall bit rate                 : 1 630 Kbps

Format/Info                      : Advanced Video Codec
Format profile                   : High@L3.0
Format settings, CABAC           : Yes
Format settings, ReFrames        : 6 frames
Bit rate                         : 1 181 Kbps
Width                            : 720 pixels
Height                           : 304 pixels
Display aspect ratio             : 2.35:1
Frame rate                       : 25.000 fps
Stream size                      : 1.03 GiB (71%)
Writing library                  : x264 core 112 r1867 22bfd31

Format/Info                      : Audio Coding 3
Mode extension                   : CM (complete main)
Bit rate mode                    : Constant
Bit rate                         : 448 Kbps
Channel(s)                       : 6 channels
Channel positions                : Front: L C R, Side: L R, LFE
Sampling rate                    : 48.0 KHz
Bit depth                        : 16 bits
Compression mode                 : Lossy
Stream size                      : 411 MiB (27%)
Language                         : Japanese

http://www.shotpix.com/images/64724580358445886177.jpg
http://www.shotpix.com/images/60945165602961323493.jpg
http://www.shotpix.com/images/50923382902615755787.jpg
http://www.shotpix.com/images/73732211134375702921.jpg
http://www.shotpix.com/images/95222177867990300397.jpg
http://www.shotpix.com/images/34890804234114078648.jpg"
